<?xml version="1.0" standalone="no"?>
<!DOCTYPE svg PUBLIC "-//W3C//DTD SVG 20010904//EN"
 "http://www.w3.org/TR/2001/REC-SVG-20010904/DTD/svg10.dtd">
<svg version="1.0" xmlns="http://www.w3.org/2000/svg"
 width="256.000000pt" height="256.000000pt" viewBox="0 0 256.000000 256.000000"
 preserveAspectRatio="xMidYMid meet">

<g transform="translate(0.000000,256.000000) scale(0.100000,-0.100000)"
fill="#000000" stroke="none">
<path d="M719 2511 c-29 -29 -29 -31 -29 -140 l0 -110 -47 -6 c-119 -15 -203
-55 -268 -128 -55 -60 -85 -140 -92 -239 l-6 -76 -103 -4 c-95 -3 -106 -5
-129 -29 -14 -14 -28 -41 -31 -61 -5 -30 -1 -41 24 -69 l30 -34 106 -3 106 -4
0 -59 0 -59 -105 0 c-99 0 -108 -2 -130 -24 -32 -32 -40 -69 -25 -107 19 -46
55 -59 165 -59 l95 0 0 -65 0 -65 -101 0 -101 0 -35 -35 c-32 -32 -35 -40 -30
-73 4 -22 17 -46 32 -59 24 -21 37 -23 131 -23 l104 0 0 -65 0 -65 -85 0
c-101 0 -147 -16 -169 -59 -20 -38 -20 -54 0 -92 22 -43 68 -59 168 -59 l84 0
7 -47 c26 -178 160 -307 333 -322 l67 -6 5 -95 c5 -98 16 -132 50 -150 34 -18
87 -12 117 14 27 23 28 30 33 128 l5 103 63 3 62 3 0 -91 c0 -129 25 -170 103
-170 22 0 43 8 61 25 24 23 26 29 26 117 0 51 4 99 9 106 5 9 26 12 67 10 l59
-3 5 -103 c5 -98 6 -105 33 -128 37 -32 87 -32 124 0 27 23 28 30 33 128 l5
103 55 0 55 0 5 -95 c5 -98 16 -132 50 -150 34 -18 87 -12 117 14 27 23 28 30
33 128 l5 103 65 6 c175 15 320 154 337 323 l6 54 104 4 c104 3 105 3 134 36
50 56 33 129 -37 158 -20 8 -68 14 -119 14 l-86 0 3 63 3 62 107 5 c124 6 146
18 155 88 5 37 2 45 -30 77 l-35 35 -101 0 -101 0 0 60 0 60 95 0 c107 0 144
12 163 55 18 40 14 71 -12 102 -23 27 -29 28 -133 33 l-108 5 -3 57 -3 56 106
4 c106 3 107 3 136 36 48 54 35 123 -31 157 -19 10 -59 15 -118 15 l-89 0 -5
73 c-12 181 -141 320 -323 347 -38 5 -76 10 -82 10 -10 0 -13 29 -13 111 0
109 0 111 -29 140 -22 21 -39 29 -66 29 -27 0 -44 -8 -66 -29 -29 -29 -29 -31
-29 -140 l0 -111 -60 0 -60 0 0 100 c0 141 -23 180 -105 180 -27 0 -44 -8 -66
-29 -29 -29 -29 -31 -29 -141 l0 -111 -62 3 -63 3 -3 112 c-3 111 -3 112 -33
137 -45 38 -92 35 -135 -8 l-34 -34 0 -106 0 -106 -65 0 -65 0 0 111 c0 109 0
111 -29 140 -22 21 -39 29 -66 29 -27 0 -44 -8 -66 -29z m1262 -391 c47 -13
114 -72 142 -124 l22 -41 0 -695 c0 -693 0 -695 -22 -735 -28 -52 -68 -89
-123 -114 -44 -20 -62 -21 -725 -21 l-680 0 -51 24 c-62 29 -110 84 -129 150
-22 74 -22 1318 0 1392 19 66 67 121 129 150 l51 24 675 0 c415 0 689 -4 711
-10z"/>
<path d="M640 1265 l0 -635 630 0 630 0 0 635 0 635 -630 0 -630 0 0 -635z
m727 481 l33 -36 0 -160 0 -160 153 0 c176 0 209 -10 241 -74 24 -48 15 -93
-25 -132 -28 -26 -39 -30 -122 -36 -51 -3 -127 -7 -169 -7 l-78 -1 0 -156 c0
-126 -3 -161 -16 -184 -34 -56 -105 -76 -164 -45 -52 27 -60 57 -60 228 l0
154 -52 7 c-29 3 -102 6 -161 6 -125 0 -161 13 -183 65 -19 46 -18 74 6 112
31 52 51 58 225 63 l160 5 3 155 c1 100 6 164 15 179 36 71 137 80 194 17z"/>
</g>
</svg>
